<?xml version="1.0" standalone="no"?>
<!DOCTYPE svg PUBLIC "-//W3C//DTD SVG 20010904//EN"
 "http://www.w3.org/TR/2001/REC-SVG-20010904/DTD/svg10.dtd">
<svg version="1.0" xmlns="http://www.w3.org/2000/svg"
 width="700.000000pt" height="700.000000pt" viewBox="0 0 700.000000 700.000000"
 preserveAspectRatio="xMidYMid meet">
<metadata>
Created by potrace 1.14, written by Peter Selinger 2001-2017
</metadata>
<g transform="translate(0.000000,700.000000) scale(0.100000,-0.100000)"
fill="#000000" stroke="none">
<path d="M3385 6362 c-130 -2 -158 -11 -174 -51 -9 -21 -46 -160 -66 -241 -21
-92 -89 -320 -99 -335 -16 -24 -214 -84 -252 -77 -14 2 -55 32 -92 65 -163
147 -250 226 -306 281 -95 91 -120 95 -215 34 -36 -24 -73 -47 -83 -53 -38
-21 -225 -136 -273 -167 -87 -58 -87 -58 -21 -264 32 -98 73 -225 92 -281 19
-56 34 -107 34 -115 0 -25 -35 -77 -100 -148 -97 -107 -102 -108 -280 -76 -52
10 -104 19 -115 21 -72 10 -169 28 -223 40 -82 19 -122 18 -147 -3 -25 -21
-244 -461 -252 -505 -5 -30 25 -75 80 -118 28 -22 61 -48 72 -57 11 -10 43
-35 70 -57 28 -22 59 -48 70 -58 11 -10 55 -48 98 -85 43 -36 80 -76 83 -89 7
-26 1 -79 -21 -203 -8 -47 -15 -88 -15 -92 0 -26 -80 -71 -260 -145 -47 -19
-103 -43 -125 -52 -22 -10 -60 -26 -85 -35 -138 -55 -152 -71 -145 -158 11
-130 16 -178 26 -253 5 -44 12 -90 14 -101 2 -12 6 -47 10 -78 4 -30 12 -62
19 -70 6 -8 34 -17 61 -20 28 -3 84 -10 125 -15 41 -6 100 -13 130 -16 61 -7
88 -11 238 -30 77 -9 100 -28 142 -118 67 -148 92 -219 86 -248 -3 -15 -80
-138 -171 -272 -122 -182 -165 -253 -165 -275 0 -24 21 -55 96 -143 53 -62
117 -140 142 -174 60 -78 86 -103 117 -115 31 -12 31 -12 195 68 258 125 364
173 390 179 18 3 44 -4 76 -21 86 -46 248 -164 263 -193 14 -27 16 -111 7
-213 -8 -78 -9 -404 -1 -422 8 -21 56 -44 120 -58 28 -6 118 -32 200 -57 196
-61 226 -64 261 -26 14 15 33 42 41 58 50 98 262 430 287 448 27 19 43 21 197
21 l169 0 29 -28 c17 -16 54 -69 82 -119 28 -49 70 -118 93 -153 23 -35 62
-99 87 -143 63 -114 98 -129 208 -92 31 11 108 35 171 55 191 58 240 78 252
100 11 20 12 124 4 511 -1 55 2 112 6 126 6 17 48 54 121 106 133 95 147 103
185 103 17 0 135 -52 285 -125 178 -87 266 -125 290 -125 39 0 35 -3 172 165
44 54 87 105 95 113 55 56 120 150 120 174 0 16 -19 55 -47 95 -239 348 -295
438 -295 471 0 34 69 203 105 255 23 34 41 44 97 51 25 4 61 9 80 12 62 9 104
14 160 19 30 3 65 8 76 10 12 2 61 6 110 10 94 8 139 24 148 52 7 22 13 69 21
156 4 37 8 76 10 86 2 10 6 42 10 72 3 30 8 61 10 69 5 18 17 113 20 154 1 17
-6 37 -19 51 -12 13 -139 74 -290 140 -148 65 -277 125 -287 134 -18 17 -46
133 -56 231 -5 55 -5 56 39 95 73 66 100 89 240 200 73 59 147 119 164 135 57
49 54 65 -41 265 -48 99 -100 212 -116 251 -49 118 -71 126 -237 95 -108 -20
-276 -50 -322 -56 -14 -2 -45 -8 -70 -12 -78 -14 -98 -7 -163 60 -71 74 -97
113 -97 148 0 23 73 262 150 487 42 127 39 132 -145 248 -77 48 -178 113 -225
145 -47 31 -97 60 -110 64 -41 10 -76 -10 -163 -93 -45 -42 -111 -102 -146
-132 -36 -30 -91 -80 -124 -110 -90 -84 -100 -87 -196 -64 -96 22 -146 54
-164 106 -15 42 -104 384 -127 483 -6 28 -22 64 -35 80 l-23 30 -174 5 c-95 3
-227 4 -293 2z m390 -986 c17 -4 76 -15 132 -26 268 -53 561 -188 781 -363
389 -308 647 -759 708 -1237 3 -25 8 -56 10 -70 5 -35 4 -317 -1 -364 -2 -22
-7 -55 -10 -75 -3 -20 -8 -50 -10 -67 -18 -131 -87 -340 -164 -499 -100 -204
-207 -354 -365 -510 -115 -114 -163 -153 -288 -237 -230 -155 -516 -263 -798
-303 -94 -14 -386 -13 -488 1 -527 70 -1004 357 -1299 782 -86 124 -83 119
-143 237 -143 281 -204 534 -204 855 0 193 20 350 65 505 219 745 812 1260
1576 1369 88 13 439 14 498 2z"/>
<path d="M3490 4752 c0 -4 -33 -40 -72 -80 -214 -212 -424 -303 -697 -303
-206 1 -437 66 -569 160 -17 12 -32 21 -35 21 -17 0 -25 -307 -12 -461 6 -65
27 -228 41 -314 60 -368 252 -875 457 -1205 109 -174 313 -408 452 -516 28
-21 52 -42 55 -45 17 -21 220 -148 297 -186 l93 -45 117 62 c317 166 613 450
797 762 143 244 291 588 357 828 7 25 14 50 15 55 12 41 55 227 59 255 3 19 8
46 11 60 2 14 6 34 8 46 2 12 7 45 11 75 4 30 9 65 12 79 7 41 11 503 4 527
-6 22 -6 22 -55 -9 -112 -69 -289 -129 -426 -144 -276 -29 -487 26 -695 181
-71 53 -205 182 -205 197 0 4 -4 8 -10 8 -5 0 -10 -4 -10 -8z m155 -207 c271
-217 562 -279 913 -194 88 21 97 24 210 76 41 18 76 33 79 33 7 0 -4 -404 -13
-475 -6 -50 -47 -287 -58 -335 -4 -14 -8 -34 -10 -46 -20 -104 -111 -379 -178
-539 -220 -524 -471 -849 -850 -1097 -80 -53 -163 -99 -214 -118 l-24 -10 0
1421 0 1420 48 -48 c26 -26 70 -66 97 -88z m-555 -459 c109 -22 174 -86 223
-223 15 -40 25 -73 22 -73 -2 0 0 -11 4 -24 24 -62 35 -415 17 -549 -19 -146
-62 -265 -120 -325 -72 -77 -135 -90 -451 -88 l-220 1 -1 73 0 72 27 0 c61 0
59 -15 57 508 l-3 477 -40 10 -41 10 2 70 c1 39 2 70 3 70 12 5 496 -4 521 -9z"/>
<path d="M3925 4106 c-132 -42 -210 -137 -224 -276 -9 -88 4 -163 39 -235 39
-80 75 -115 216 -210 66 -44 151 -111 190 -150 60 -59 73 -78 83 -122 7 -29
10 -65 6 -80 -13 -60 -75 -103 -146 -103 -142 0 -256 165 -268 387 -1 7 -22
10 -63 10 l-63 -2 0 -260 0 -260 63 -1 62 0 10 35 c5 20 10 42 10 49 0 18 6
16 63 -29 75 -60 100 -69 203 -74 105 -6 165 16 235 85 69 68 99 141 105 252
9 177 -73 309 -276 448 -125 85 -211 156 -234 191 -81 122 30 252 166 194 88
-36 156 -168 158 -306 l0 -35 63 0 62 1 3 240 2 240 -60 2 c-33 1 -60 -2 -60
-7 0 -5 -4 -20 -10 -34 l-9 -25 -50 34 c-78 52 -189 68 -276 41z"/>
<path d="M2900 3450 l0 -500 39 0 c78 0 120 31 146 105 23 68 30 163 30 405 0
268 -8 343 -45 422 -16 34 -83 68 -133 68 l-37 0 0 -500z"/>
</g>
</svg>
