<?xml version="1.0" encoding="UTF-8"?>
<svg width="6480px" height="6480px" viewBox="0 0 6480 6480" xmlns="http://www.w3.org/2000/svg" xmlns:xlink="http://www.w3.org/1999/xlink" version="1.1">
 <!-- Generated by Pixelmator Pro 2.2 -->
 <path id="Path" d="M2735.962 5889.471 C2704.663 5889.543 2670.834 5875.52 2643.829 5866.471 2559.998 5838.372 2473.225 5815.671 2388.456 5790.686 2353.197 5780.282 2304.628 5775.199 2274.193 5754.154 2228.029 5722.194 2249.736 5645.857 2249.736 5598.645 2249.736 5518.604 2247.699 5435.767 2253.169 5355.885 2257.205 5297.007 2267.415 5225.046 2258.525 5166.721 2252.345 5126.208 2212.727 5099.96 2180.376 5081.596 2113.637 5043.605 2055.046 4984.532 1984.905 4952.965 1933.681 4929.91 1892.159 4960.61 1846.196 4981.576 1743.492 5028.473 1642.184 5079.429 1540.37 5128.178 1497.863 5148.553 1431.091 5199.942 1382.855 5171.883 1331.942 5142.247 1290.633 5069.419 1252.611 5024.848 L1121.134 4868.826 C1098.221 4842.383 1066.801 4815.348 1062.071 4778.934 1057.91 4746.894 1078.718 4727.03 1095.542 4703.149 L1144.503 4627.207 C1199.313 4551.581 1248.149 4471.668 1301.222 4394.709 1327.547 4356.53 1369.941 4311.635 1378.118 4265.037 1383.667 4233.415 1366.331 4205.008 1354.989 4176.76 1330.032 4114.619 1303.883 4051.344 1275.366 3990.748 1246.022 3928.419 1169.899 3931.225 1111.597 3923.217 1004.723 3908.494 897.221 3896.861 790.019 3884.061 L689.13 3869.18 C677.872 3867.414 662.542 3870.252 652.665 3863.631 643.101 3857.231 643.151 3840.205 641.222 3829.959 L627.38 3738.529 C605.731 3610.02 593.601 3480.769 585.374 3350.742 581.263 3285.765 670.574 3267.287 717.505 3246.487 826.842 3198.025 941.078 3158.012 1048.542 3105.602 1089.047 3085.842 1142.336 3072.273 1155.964 3022.858 1172.374 2963.377 1176.812 2900.517 1188.087 2840 1195.279 2801.387 1206.271 2767.21 1179.642 2732.854 1158.286 2705.306 1124.934 2686.559 1099.523 2663.035 1024.082 2593.198 942.026 2527.373 861.63 2463.262 817.227 2427.849 745.237 2388.067 752.528 2322.998 755.969 2292.294 783.475 2260.026 795.239 2231.399 834.916 2134.846 885 2037.241 933.423 1944.621 953.101 1906.982 967.363 1850.583 1017.015 1844.317 1066.785 1838.039 1128.925 1857.784 1177.804 1867.541 1264.484 1884.838 1352.336 1896.629 1439.482 1911.246 1487.848 1919.361 1552.32 1943.569 1600.273 1926.654 1633.538 1914.918 1658.025 1881.279 1681.47 1855.856 1716.477 1817.889 1776.274 1767.318 1784.534 1714.471 1790.426 1676.788 1758.016 1615.169 1746.382 1578.904 L1659.077 1298.311 C1646.624 1258.397 1620.222 1211.814 1622.681 1169.047 1625.609 1118.15 1686.204 1098.371 1721.937 1074.24 1804.483 1018.5 1892.838 969.444 1978.601 918.557 2013.033 898.127 2052.753 860.696 2092.099 851.862 2149.49 838.976 2200.029 906.692 2236.845 941.514 2320.42 1020.569 2406.448 1098.233 2492.919 1173.93 2527.785 1204.448 2560.404 1249.44 2612.302 1244.383 2655.108 1240.21 2699.404 1218.179 2741.564 1208.449 2764.776 1203.097 2795.771 1199.098 2813.091 1181.522 2841.718 1152.473 2844.98 1096.184 2856.661 1058.701 2889.718 952.64 2912.812 843.553 2944.698 737.121 2955.603 700.722 2958.37 648.547 2982.618 618.264 3007.158 587.616 3040.541 592.096 3075.753 592.096 L3239.999 592 C3261.233 592 3374.999 592 3374.999 592 3374.999 592 3463.789 592 3508.999 592 3527.845 592 3557.343 595.692 3573.761 606.912 3615.152 635.198 3622.805 717.033 3634.191 762.344 3658.037 857.278 3684.95 951.433 3710.306 1046.09 3720.71 1084.955 3724.682 1141.343 3748.327 1174.451 3783.827 1224.209 3879.039 1244.634 3936.45 1255.373 3997.298 1266.755 4033.113 1219.997 4072.302 1181.975 4149.828 1106.727 4239.619 1043.308 4314.78 965.455 4353.78 925.066 4413.335 855.066 4475.569 875.369 4518.565 889.405 4561.404 927.052 4598.921 951.977 4675.532 1002.87 4753.72 1052.377 4831.829 1101.024 4871.751 1125.879 4933.741 1150.463 4938.47 1203.729 4942.056 1244.048 4914.942 1291.733 4903.474 1329.838 4872.892 1431.242 4837.544 1531.211 4807.318 1632.5 4795.573 1671.965 4768.735 1720.075 4776.577 1761.762 4785.444 1809.384 4837.898 1854.338 4869.583 1889.416 4890.785 1912.884 4913.248 1938.277 4945.327 1945.627 4986.076 1954.971 5040.186 1936.298 5080.896 1929.633 L5367.794 1882.356 C5419.38 1873.398 5522.476 1838.038 5560.23 1888.533 5588.171 1925.881 5602.438 1978.363 5622.497 2020.287 L5743.05 2275.658 C5762.597 2316.893 5804.212 2371.632 5771.818 2417.252 5743.798 2456.681 5689.768 2487.925 5652.093 2517.94 5578.24 2576.762 5506.16 2638.618 5434.001 2699.418 5395.735 2731.679 5324.168 2771.345 5330.552 2830.541 5335.045 2872.272 5346.75 2914.928 5353.331 2956.651 5358.376 2988.785 5360.228 3022.756 5381.075 3049.613 5403.026 3077.925 5443.736 3088.617 5474.987 3102.662 L5692.527 3197.996 C5747.699 3223.38 5803.975 3247.168 5859.739 3271.207 5894.617 3286.234 5929.338 3295.687 5937.259 3338.131 5944.195 3375.152 5928.509 3429.688 5923.544 3467.395 5911.288 3560.656 5895.879 3654.238 5888.273 3747.988 5885.042 3787.839 5886.696 3860.319 5847.011 3882.231 5807.72 3903.921 5748.606 3897.837 5705.138 3903.039 5601.649 3915.43 5495.875 3925.991 5393.017 3942.07 5354.79 3948.029 5308.641 3943.9 5276.325 3967.514 5238.374 3995.195 5223.479 4046.805 5205.429 4088.485 5187.341 4130.29 5148.009 4193.501 5152.265 4239.815 5156.128 4281.746 5194.789 4316.364 5215.124 4350.697 5272.701 4447.833 5342.217 4538.183 5403.341 4633.08 5424.977 4666.618 5463.283 4704.215 5470.771 4744.254 5479.244 4789.732 5431.638 4829.495 5406.259 4860.904 5347.697 4933.339 5287.203 5004.433 5226.788 5075.291 5202.276 5104.021 5178.788 5146.662 5147.064 5167.588 5099.103 5199.155 5038.372 5150.838 4995.771 5131.725 4894.174 5086.128 4791.829 5036.749 4693.109 4985.162 4653.936 4964.67 4600.102 4927.348 4554.388 4945.319 4490.261 4970.541 4428.845 5026.582 4371.528 5064.809 4342.996 5083.804 4310.902 5102.05 4296.999 5135.194 4283.883 5166.484 4292.71 5215.076 4292.71 5248.692 L4295.864 5519.826 4299.017 5661.699 C4299.017 5683.847 4302.074 5708.243 4289.589 5727.869 4273.29 5753.446 4237.286 5759.12 4210.739 5769.051 4140.055 5795.455 4068.33 5817.367 3996.353 5839.83 L3933.583 5854.727 C3892.661 5867.968 3839.819 5897.17 3794.577 5887.041 3745.867 5876.086 3723.105 5818.667 3700.886 5778.627 3648.96 5684.991 3584.22 5598.014 3532.685 5504.063 3506.348 5456.062 3473.259 5378.507 3409.944 5374.92 3342.094 5371.137 3272.982 5374.801 3205.017 5374.801 3165.588 5374.801 3129.039 5369.993 3094.718 5392.772 3057.614 5417.402 3037.484 5467.333 3014.343 5504.063 2961.062 5588.595 2908.776 5673.917 2857.095 5759.436 2835.806 5794.667 2811.712 5856.698 2776.196 5878.846 2763.893 5886.494 2750.189 5889.438 2735.962 5889.471 Z M3260.999 4990 C4227.496 4990 5010.999 4206.498 5010.999 3240 5010.999 2273.503 4227.496 1490 3260.999 1490 2294.502 1490 1510.999 2273.503 1510.999 3240 1510.999 4206.498 2294.502 4990 3260.999 4990 Z" fill="#919285" fill-opacity="1" stroke="none"/>
 <g id="New-Group-Copy">
  <defs>
   <path id="Path-1" d="M4524.021 2265.66 C4524.021 2265.66 4269.346 2471 3860.884 2434.672 3478.273 2400.642 3240 2072 3240 2072 3240 2072 3001.738 2400.638 2619.115 2434.672 2210.678 2471.001 1955.978 2265.66 1955.978 2265.66 1955.978 2265.66 1828.056 3048.519 2356.208 4007.422 2702.656 4636.427 3240 4829.009 3240 4829.009 3240 4829.009 3777.349 4636.404 4123.792 4007.422 4651.96 3048.511 4524.021 2265.66 4524.021 2265.66 Z"/>
  </defs>
  <use id="Path-2" xlink:href="#Path-1" fill="#ffffff" fill-opacity="1" stroke="none"/>
  <defs>
   <path id="stroke-path" d="M2272.594 3792.516 L2293.422 3836.031 2309.594 3868.813 2332 3912.859 2349.5 3946.266 2349.484 3946.266 2367.266 3979.359 2388.531 4017.766 2404.922 4046.141 2421.547 4073.875 2438.375 4100.938 2464.359 4140.938 2499.016 4191.141 2516.656 4215.484 2543.563 4251.156 2579.953 4296.813 2597.766 4318.156 2625.219 4349.875 2643.5 4370.234 2671.094 4399.906 2689.672 4419.188 2716.953 4446.547 2735.203 4464.234 2762.844 4490.172 2789.641 4514.344 2816.875 4537.969 2843.141 4559.906 2869.375 4581.031 2895.531 4601.328 2920.906 4620.328 2945.375 4638 2977.672 4660.391 3001.391 4676.188 3031.172 4695.219 3060.281 4713.031 3084.141 4727.031 3109.453 4741.281 3145.047 4760.25 3176.125 4775.813 3201.641 4787.797 3228.047 4799.328 3239.922 4804.047 3257.484 4796.969 3295.031 4780.016 3334.984 4760.219 3370.141 4741.484 3406.359 4720.906 3441.406 4699.828 3478.563 4676.188 3510.328 4654.922 3542.406 4632.422 3576.313 4607.484 3610.406 4581.203 3645.297 4552.938 3681.406 4522.188 3708.406 4498.141 3744.469 4464.547 3772.25 4437.422 3799.781 4409.422 3827.328 4380.234 3854.484 4350.172 3882.234 4318.141 3909.156 4285.609 3936.219 4251.406 3963.344 4215.469 3989.516 4179.078 4015.781 4140.688 4041.609 4100.922 4066.594 4060.406 4083.109 4032.359 4099.359 4003.688 4124.563 3957.406 4147.859 3913.109 4170.25 3869.094 4191.719 3825.422 4217.484 3770.859 4236.844 3728.219 4236.828 3728.219 4260.172 3674.609 4281.953 3622.266 4300.594 3575.313 4316.453 3533.734 4338.547 3472.859 4352.375 3432.672 4371.969 3372.703 4389.75 3314.609 4406.172 3257.125 4416.297 3219.531 4430.438 3163.625 4443.047 3109.719 4454.484 3056.656 4464.703 3004.922 4473.766 2954.516 4481.797 2905.141 4490.766 2842.422 4496.406 2796.906 4502.594 2738.094 4506.219 2696.688 4506.203 2696.688 4509.938 2642.984 4512.438 2593.234 4513.891 2546.281 4514.453 2492.141 4513.859 2442.938 4512.234 2396.125 4509.672 2352.313 4505.859 2307.875 4505.75 2306.875 4487.094 2318.719 4467.484 2330.328 4444.969 2342.797 4428.172 2351.563 4400.875 2364.906 4380.953 2373.984 4359.859 2383.016 4337.547 2391.969 4316.969 2399.672 4292.438 2408.219 4266.719 2416.422 4246.594 2422.344 4218.922 2429.766 4197.219 2435.031 4152.516 2444.344 4129.016 2448.422 4105.031 2452.031 4080.469 2455.141 4055.219 2457.766 4012.219 2460.797 3985.469 2461.828 3958.156 2462.172 3911.797 2461.234 3883.109 2459.672 3858.766 2457.766 3835.906 2455.391 3817.594 2452.969 3782.313 2446.984 3764.688 2443.344 3739.094 2437.313 3722.125 2432.797 3697.438 2425.5 3681.078 2420.188 3657.141 2411.703 3618.781 2396.375 3596.313 2386.375 3574.422 2375.906 3539.578 2357.703 3519.266 2346.203 3499.531 2334.406 3462.375 2310.406 3444.469 2298 3421.703 2281.406 3384.781 2252.453 3349.063 2221.906 3315.656 2190.813 3300.609 2175.953 3280.563 2155.234 3263.313 2136.453 3248.922 2120.047 3240 2109.344 3231.063 2120.047 3216.672 2136.453 3199.422 2155.234 3179.375 2175.953 3164.328 2190.813 3130.922 2221.906 3095.219 2252.453 3058.281 2281.406 3035.531 2298 3017.609 2310.406 2980.453 2334.406 2960.734 2346.203 2940.406 2357.703 2905.578 2375.906 2883.688 2386.375 2861.203 2396.375 2822.844 2411.703 2798.906 2420.172 2782.563 2425.5 2757.859 2432.797 2740.891 2437.313 2715.313 2443.344 2697.672 2446.984 2662.391 2452.969 2644.078 2455.391 2621.219 2457.766 2596.875 2459.672 2568.188 2461.234 2521.828 2462.172 2494.531 2461.828 2467.766 2460.797 2424.766 2457.766 2399.516 2455.141 2374.953 2452.031 2350.984 2448.422 2327.469 2444.344 2282.781 2435.031 2261.078 2429.766 2233.406 2422.344 2213.266 2416.422 2187.563 2408.219 2163.016 2399.672 2142.438 2391.969 2120.125 2383.016 2099.031 2373.984 2079.125 2364.906 2051.813 2351.563 2035.031 2342.797 2012.516 2330.328 1992.891 2318.719 1974.359 2306.953 1972.188 2328.484 1969.375 2366.172 1967.078 2411.984 1965.938 2452.641 1965.531 2491.672 1965.875 2534.563 1967.094 2580.75 1969.344 2630.594 1971.75 2669.281 1974.891 2710.063 1978.797 2752.469 1983.594 2796.844 1989.188 2842.047 1995.844 2889.5 2003.391 2937.656 2012.078 2987.641 2018.469 3021.563 2032.891 3091.438 2049.547 3163.563 2068.703 3238.375 2090.125 3314.266 2101.906 3353.156 2114.438 3392.781 2127.484 3432.313 2141.359 3472.578 2155.953 3513.25 2171.313 3554.344 2187.438 3595.844 2187.453 3595.844 2202.313 3632.719 2202.297 3632.719 2219.828 3674.656 2238.234 3717.109 Z"/>
  </defs>
  <use id="Path-3" stroke="#919284" stroke-opacity="1" stroke-linecap="round" fill="none" stroke-width="46.379" xlink:href="#stroke-path"/>
  <path id="Path-4" d="M3240.991 2072.991 C3240.991 2072.991 3002.729 2401.63 2620.107 2435.663 2211.67 2471.993 1956.969 2266.651 1956.969 2266.651 1956.969 2266.651 1829.047 3049.51 2357.199 4008.414 2703.647 4637.418 3240.991 4830 3240.991 4830 3240.991 4830 3240.991 2072.991 3240.991 2072.991 Z" fill="#919284" fill-opacity="1" stroke="none"/>
  <path id="DS" d="M3418.695 3400.856 L3536.385 3400.856 3544.791 3482.426 C3554.879 3552.502 3578.977 3615.01 3617.086 3669.951 3663.042 3736.103 3719.083 3769.459 3785.214 3770.02 3822.203 3770.02 3854.567 3758.528 3882.308 3735.542 3910.05 3712.557 3924.2 3682.284 3924.76 3644.723 3924.2 3610.525 3916.354 3580.533 3901.222 3554.745 3875.443 3513.82 3838.735 3474.577 3791.099 3437.016 3758.594 3411.788 3724.408 3387.682 3688.541 3364.697 L3584.301 3295.741 C3531.061 3259.862 3490.71 3214.733 3463.249 3160.353 3435.228 3108.777 3421.497 3048.231 3422.058 2978.715 3420.937 2886.213 3447.837 2811.932 3502.759 2755.871 3560.483 2697.006 3633.899 2667.013 3723.007 2665.892 3788.017 2666.453 3846.301 2685.233 3897.86 2722.234 L3934.848 2754.189 3954.183 2687.756 4062.625 2687.756 4062.625 3134.285 3944.936 3134.285 3943.254 3080.466 C3939.332 3010.389 3920.838 2950.404 3887.772 2900.509 3845.74 2836.038 3793.901 2803.523 3732.254 2802.962 3698.628 2802.962 3670.887 2815.156 3649.031 2839.542 3627.174 2863.929 3615.965 2891.819 3615.405 2923.214 3615.405 2947.881 3621.57 2969.464 3633.899 2987.965 3655.196 3020.48 3684.618 3050.473 3722.166 3077.943 L3819.68 3146.898 3908.788 3209.126 C3941.293 3232.672 3971.556 3259.021 3999.577 3288.173 4032.082 3322.371 4057.582 3356.848 4076.076 3391.606 4104.097 3445.986 4118.107 3506.812 4118.107 3574.086 4117.547 3643.042 4101.855 3705.269 4071.032 3760.77 4017.791 3857.757 3930.646 3906.53 3809.593 3907.09 3772.604 3907.651 3737.999 3902.045 3705.774 3890.272 3673.549 3878.499 3645.108 3862.521 3620.449 3842.339 L3560.763 3789.361 3536.385 3884.385 3418.695 3884.385 Z" fill="#929282" fill-opacity="1" stroke="none"/>
  <path id="Shape" d="M2405.302 3748.346 C2432.959 3748.906 2448.874 3737.134 2453.049 3713.027 L2454.615 3689.482 2454.615 2884.721 2453.049 2860.334 C2450.44 2837.91 2434.524 2826.417 2405.302 2825.857 L2373.209 2825.857 2373.209 2688.787 2731.707 2688.787 C2805.286 2688.787 2861.904 2695.234 2901.563 2708.128 3045.589 2754.659 3117.862 2947.508 3118.384 3286.681 3118.384 3464.957 3098.294 3604.548 3058.113 3705.459 3027.846 3780.582 2984.013 3831.036 2926.611 3856.825 2884.343 3875.885 2819.375 3885.416 2731.707 3885.416 L2373.209 3885.416 2373.209 3748.346 Z M2684.742 2825.857 L2684.742 3748.346 2724.662 3748.346 C2794.588 3747.785 2838.943 3716.111 2857.729 3653.322 2866.6 3625.291 2872.602 3594.458 2875.732 3560.821 2884.082 3475.607 2888.256 3385.069 2888.256 3289.204 2888.256 3192.778 2884.082 3100.838 2875.732 3013.382 2869.992 2954.517 2857.729 2909.949 2838.943 2879.676 2817.548 2844.357 2779.455 2826.417 2724.662 2825.857 Z" fill="#ffffff" fill-opacity="1" stroke="none"/>
 </g>
</svg>
